<svg xmlns="http://www.w3.org/2000/svg" xmlns:xlink="http://www.w3.org/1999/xlink" aria-hidden="true" role="img" class="iconify iconify--logos" width="36.55" height="32" preserveAspectRatio="xMidYMid meet" viewBox="0 0 256 223"><defs><linearGradient id="IconifyId18161d02baa34cb8757" x1="-.356%" x2="89.226%" y1="90.577%" y2="13.79%"><stop offset="0%" stop-color="#41D1FF"></stop><stop offset="100%" stop-color="#BD34FE"></stop></linearGradient></defs><path fill="url(#IconifyId18161d02baa34cb8757)" d="M219.182 179.252c-1.458 1.75-3.637 2.766-5.936 2.766H42.742c-2.29 0-4.462-1.008-5.924-2.746C13.26 151.29.02 117.273 0 81.714v-.091c.014-35.734 13.356-69.95 37.142-97.868a7.742 7.742 0 0 1 5.895-2.755h170.115c2.227 0 4.34.956 5.813 2.618c24.065 27.14 37.608 62.138 37.03 98.625c-.576 36.306-14.989 70.882-36.813 97.009Z"></path></svg>
